<?xml version="1.0" encoding="UTF-8" standalone="no"?>
<!-- Created with Inkscape (http://www.inkscape.org/) -->

<svg
   xmlns:dc="http://purl.org/dc/elements/1.1/"
   xmlns:cc="http://creativecommons.org/ns#"
   xmlns:rdf="http://www.w3.org/1999/02/22-rdf-syntax-ns#"
   xmlns:svg="http://www.w3.org/2000/svg"
   xmlns="http://www.w3.org/2000/svg"
   xmlns:sodipodi="http://sodipodi.sourceforge.net/DTD/sodipodi-0.dtd"
   xmlns:inkscape="http://www.inkscape.org/namespaces/inkscape"
   width="449.68628"
   height="81.297234"
   id="svg2"
   version="1.1"
   inkscape:version="0.48.2 r9819"
   sodipodi:docname="logo_clean.svg">
  <defs
     id="defs4">
    <inkscape:perspective
       sodipodi:type="inkscape:persp3d"
       inkscape:vp_x="0 : 526.18109 : 1"
       inkscape:vp_y="0 : 1000 : 0"
       inkscape:vp_z="744.09448 : 526.18109 : 1"
       inkscape:persp3d-origin="372.04724 : 350.78739 : 1"
       id="perspective2987" />
  </defs>
  <sodipodi:namedview
     id="base"
     pagecolor="#ffffff"
     bordercolor="#666666"
     borderopacity="1.0"
     inkscape:pageopacity="0.0"
     inkscape:pageshadow="2"
     inkscape:zoom="2"
     inkscape:cx="197.21736"
     inkscape:cy="36.155786"
     inkscape:document-units="px"
     inkscape:current-layer="layer1"
     showgrid="false"
     inkscape:window-width="1366"
     inkscape:window-height="748"
     inkscape:window-x="-8"
     inkscape:window-y="-8"
     inkscape:window-maximized="1"
     showguides="true"
     inkscape:guide-bbox="true"
     fit-margin-top="0"
     fit-margin-left="0"
     fit-margin-right="0"
     fit-margin-bottom="0" />
  <metadata
     id="metadata7">
    <rdf:RDF>
      <cc:Work
         rdf:about="">
        <dc:format>image/svg+xml</dc:format>
        <dc:type
           rdf:resource="http://purl.org/dc/dcmitype/StillImage" />
        <dc:title />
      </cc:Work>
    </rdf:RDF>
  </metadata>
  <g
     inkscape:label="Layer 1"
     inkscape:groupmode="layer"
     id="layer1"
     transform="translate(-173.35837,-448.92467)">
    <path
       style="fill:none;stroke:#3c3c3c;stroke-width:1px;stroke-linecap:butt;stroke-linejoin:miter;stroke-opacity:1"
       d="m 622.54464,529.28182 0,-1.875 -1.48613,-0.3982 0,-4.11072 -5.86874,-3.38832 0,-4.69204 2.1763,0 1.10427,-1.91265 0,-7.73021 -1.14647,-0.66191 0,-1.39166 -8.88515,-8.88515 -6.38885,8.68694 -4.90701,0.26517 -3.49331,3.49331 -2.48883,0 0,1.26116 -1.07143,0 0,2.99107 1.16071,0 0,2.1875 -4.24107,0 0,-3.4375 -1.10427,-1.91265 0,-1.16771 1.50606,0 0,-3.88393 -1.19457,-0.32008 0,-4.41206 -1.09915,-1.09914 -1.23307,0 -2.15672,2.15671 0,7.96029 1.54059,0.88946 0,4.78018 -1.61158,1.61158 -1.58925,-1.58926 0,-3.05803 -0.92634,-0.92634 0,-4.16295 -0.95425,-0.95424 0,-1.47879 1.00177,-0.57837 0,-5.29217 -1.05574,-0.60953 -1.88241,0 -0.65255,1.13026 0,8.34088 -0.53,0.91798 0,4.03737 -1.92406,-1.11085 0,-7.06004 1.00611,-1.00611 0,-3.41331 -0.79121,-0.7912 0,-1.67104 -1.20056,-1.20057 -1.01117,0 -0.94009,1.62828 0,5.50693 0.90376,0.52179 0,1.53008 -0.96042,0.96042 0,3.99564 -2.06898,0.55439 -1.8944,-0.50761 0,-1.02536 1.05954,-1.05954 0,-1.30801 -0.81184,-0.81183 -4.91558,0 -3.15268,-0.84476 0,-1.15289 -1.01218,-1.01218 -2.11703,0 -4.02584,4.02584 0,1.37419 -1.88564,1.88564 -0.97018,0 0,-1.2543 -2.36755,0 -1.32718,2.29875 -1.54544,0 0,-3.1195 1.24139,-0.71671 0,-1.46143 0,-0.50507 -5.81351,-5.81352 0,-2.58338 -1.26782,0 -2.43045,4.20966 -9.91236,0 -0.67309,0.67309 -1.27938,-0.73865 -3.19299,0 -0.70587,0.70587 -1.00019,-0.57746 -15.97161,0 -0.96524,0.55729 -1.19112,-0.31916 -0.43196,-0.24939 -10.07015,0 -1.89185,-3.27678 -0.3421,-1.27673 -1.14375,0 -0.94702,0 0,3.44899 -5.90308,5.90308 -2.61554,0.083 -0.53571,0.80357 -2.67857,0 -1.07143,-1.60714 -2.32143,0 -0.625,0.98214 0,2.67857 -2.58929,0 -2.85714,-4.46428 -2.5,-0.17857 -0.35714,-2.05358 -6.96429,0.17858 -0.44643,-1.42858 -4.19642,-0.0893 -5.53572,-2.76786 -2.76786,0 -1.78571,2.67857 0.26786,3.03572 -2.67857,0 -0.53572,2.41071 -2.14286,0 -1.07142,1.60714 -2.5,-0.35714 0,-12.58928 -1.407,-2.43699 -1.53943,2.07984 0,6.07143 -1.11842,1.93716 0,7.97356 -0.70599,1.13484 -2.74004,-0.0884 -3.44715,-3.27037 -1.5026,-0.26516 -0.44194,-2.65165 -2.56326,-0.17678 0,-20.5061 -1.28164,-0.22096 -1.01358,3.16472 -3.31168,0.15951 -2.59308,-3.38857 0.13507,-11.99533 -2.04738,-3.54616 0,-4.0103 -1.046,-1.81173 -0.81596,-11.53738 -2.93046,-0.0884 0,10.5 -1.12224,4.18824 0.37754,3.37187 -1.92055,0.45506 0.22775,11.00294 -0.94147,1.63068 0,3.54004 -1.75203,1.75202 -3.69656,0 -0.67162,-2.50649 -0.78343,-1.35695 -0.86304,1.49483 0,4.85923 0,10.65079 -2.10133,0 0,-2.43068 -3.54219,-2.04508 -1.03942,0.6001 -1.4288,0 0,-9.20581 -2.11333,-4.65001 -1.43159,4.88348 -1.13753,0.3048 0,2.90887 1.64997,2.85785 0,2.48965 -3.37568,0 -1.12631,1.95083 0,4.41313 -1.56953,0 -2.18761,-2.18761 -2.276,0 -0.63754,-1.10425 -2.36766,0 0,-1.03917 -3.0936,0 -3.44715,4.5962 -1.59098,0.0884 -0.26517,-4.5078 -1.06066,-1.01647 -2.03293,0 -1.10485,1.10486 -3.27037,0 -3.0494,-3.0494 -2.43068,0 -0.65815,-1.13996 -4.91032,0 -2.05048,2.05048 -2.23635,0 -3.74318,3.74319 0,2.15219 -3.41628,0 0,-14.14214 -1.69455,-0.97834 0,-2.55719 -1.25195,-1.25195 0,-5.73073 -0.79869,-1.38338 0,-3.91992 -0.77876,-1.34885 -1.44226,0 0,9.12702 -0.66392,2.47778 0,3.40005 -3.0268,3.0268 0,7.13786 0.50996,1.90319 0,4.72594 -0.78945,1.36737 -1.28865,0.34529 -0.75155,0 0,-2.90591 -2.40858,-2.40858 -2.54117,0 -1.23532,-2.13963 -4.59831,0 -3.0917,3.0917 -2.60935,0 -1.66986,6.23203 -1.24695,0 -2.28471,-3.95723 -4.34442,0 -3.72301,3.72301 0,2.83913 -2.1099,0.56535 -3.20903,3.20902 0.37966,1.41692 0,2.05655 0.75153,0 0,4.19845 -3.00521,0 0,-2.2539 1.12695,-1.12695 0,-0.68501 -4.1653,-4.1653 0,-3.70127 -1.9114,0 -0.99235,1.71882 -8.14141,-8.1414 -0.6516,-2.43182 -1.07603,-0.28832 -2.05748,2.05748 -20.13837,0 -1.59237,0.91936 -2.3851,0 -0.98292,-0.98292 -1.20469,1.20469 -1.92245,0 -0.91703,-0.91703 -1.07648,0.6215 -6.66855,0 -1.2554,-1.2554 -7.64973,7.64972 -1.52469,0 -0.62353,-1.07998 -0.85304,1.4775 0,1.30396 -4.38824,4.38824 0,4.00865 1.73916,1.73916 3.15337,0 0,4.97836 -1.63518,0 0,-1.76777 -4.06586,0 -6.56284,-6.56283 -4.04377,0 -0.79359,1.37453 -0.88578,0 -1.09607,-1.09606 -1.33461,0 -3.67252,3.67251 -0.7355,1.27393 -1.29303,0 -0.96623,-0.96622 -1.68542,0 -0.88086,-0.88086 -1.54982,0 -6.01192,6.01192 0,4.73028"
       id="path2984"
       inkscape:connector-curvature="0"
       sodipodi:nodetypes="cccccccccccccccccccccccccccccccccccccccccccccccccccccccccccccccccccccccccccccccccccccccccccccccccccccccccccccccccccccccccccccccccccccccccccccccccccccccccccccccccccccccccccccccccccccccccccccccccccccccccccccccccccccccccccccccccccccccccccccccccccccccccccccccccccccccccccccccccccccccccccccccccccccc" />
  </g>
</svg>
